<svg xmlns="http://www.w3.org/2000/svg" xmlns:xlink="http://www.w3.org/1999/xlink" width="600" zoomAndPan="magnify" viewBox="0 0 450 449.999984" height="600" preserveAspectRatio="xMidYMid meet" version="1.0"><path fill="#caddff" d="M 116.191406 51.890625 C 194.03125 8.828125 298.3125 53.566406 352.652344 103.164062 C 368.175781 117.332031 405.816406 152.675781 414.707031 209.324219 C 425.746094 279.695312 389.605469 364.984375 306.71875 401.46875 C 216.503906 441.179688 115.628906 403.546875 68.417969 342.457031 C 24.261719 285.320312 33.097656 218.046875 36.257812 194.015625 C 39.960938 165.820312 50.976562 87.96875 116.191406 51.890625 " fill-opacity="1" fill-rule="nonzero"/><path fill="#2e98ff" d="M 66.1875 79.265625 C 74.105469 65.582031 91.621094 60.90625 105.304688 68.828125 C 118.992188 76.746094 123.664062 94.261719 115.742188 107.949219 C 107.820312 121.632812 90.308594 126.304688 76.625 118.382812 C 62.9375 110.464844 58.265625 92.949219 66.1875 79.265625 Z M 47.300781 77.847656 C 46.410156 80.308594 45.730469 82.808594 45.277344 85.324219 L 33.4375 87.984375 L 33.425781 99.105469 L 45.277344 101.792969 C 45.734375 104.332031 46.398438 106.835938 47.269531 109.269531 L 38.335938 117.5 L 43.882812 127.136719 L 55.472656 123.542969 C 57.125 125.5 58.957031 127.332031 60.957031 129.019531 L 57.332031 140.613281 L 66.957031 146.1875 L 75.207031 137.269531 C 77.664062 138.160156 80.164062 138.839844 82.6875 139.292969 L 85.34375 151.132812 L 96.464844 151.144531 L 99.148438 139.296875 C 101.691406 138.839844 104.195312 138.171875 106.625 137.300781 L 114.859375 146.234375 L 124.496094 140.683594 L 120.902344 129.097656 C 122.859375 127.445312 124.691406 125.613281 126.378906 123.617188 L 137.972656 127.238281 L 143.542969 117.613281 L 134.628906 109.363281 C 135.519531 106.902344 136.195312 104.40625 136.652344 101.886719 L 148.492188 99.230469 L 148.503906 88.105469 L 136.652344 85.417969 C 136.195312 82.878906 135.527344 80.378906 134.660156 77.941406 L 143.59375 69.710938 L 138.042969 60.074219 L 126.457031 63.667969 C 124.804688 61.710938 122.972656 59.878906 120.972656 58.191406 L 124.597656 46.597656 L 114.972656 41.027344 L 106.722656 49.945312 C 104.261719 49.050781 101.761719 48.375 99.242188 47.917969 L 96.585938 36.078125 L 85.464844 36.066406 L 82.78125 47.917969 C 80.234375 48.375 77.734375 49.039062 75.300781 49.910156 L 67.070312 40.976562 L 57.433594 46.527344 L 61.027344 58.113281 C 59.070312 59.765625 57.238281 61.597656 55.550781 63.59375 L 43.957031 59.972656 L 38.386719 69.601562 L 47.300781 77.847656 " fill-opacity="1" fill-rule="nonzero"/><path fill="#000000" d="M 335.46875 142.777344 L 50.578125 131.777344 C 43.804688 131.777344 38.292969 137.289062 38.292969 144.066406 L 38.292969 342.945312 C 38.292969 349.722656 43.804688 355.234375 50.578125 355.234375 L 153.519531 348.261719 L 140.304688 396.5 L 126.320312 396.613281 C 121.957031 396.613281 118.414062 400.160156 118.414062 404.519531 C 118.414062 408.878906 121.957031 412.425781 126.320312 412.425781 L 243.429688 406.839844 C 247.789062 406.839844 239.628906 355.234375 239.628906 355.234375 C 239.628906 355.234375 342.246094 142.777344 335.46875 142.777344 " fill-opacity="1" fill-rule="nonzero"/><path fill="#ffffff" d="M 237.789062 329.808594 L 165.140625 329.808594 L 144.53125 405.035156 L 258.398438 405.035156 L 237.789062 329.808594 " fill-opacity="1" fill-rule="nonzero"/><path fill="#000000" d="M 145.4375 404.339844 L 257.492188 404.339844 L 237.261719 330.503906 L 165.667969 330.503906 Z M 258.398438 405.726562 L 144.53125 405.726562 C 144.316406 405.726562 144.109375 405.625 143.980469 405.453125 C 143.847656 405.28125 143.804688 405.058594 143.863281 404.851562 L 164.472656 329.625 C 164.554688 329.324219 164.828125 329.117188 165.140625 329.117188 L 237.789062 329.117188 C 238.101562 329.117188 238.375 329.324219 238.457031 329.625 L 259.066406 404.851562 C 259.125 405.058594 259.082031 405.28125 258.949219 405.453125 C 258.816406 405.625 258.613281 405.726562 258.398438 405.726562 " fill-opacity="1" fill-rule="nonzero"/><path fill="#ffffff" d="M 346.503906 132.472656 L 56.425781 132.472656 C 50.023438 132.472656 44.832031 137.664062 44.832031 144.066406 L 44.832031 342.949219 C 44.832031 349.351562 50.023438 354.539062 56.425781 354.539062 L 346.503906 354.539062 C 352.90625 354.539062 358.09375 349.351562 358.09375 342.949219 L 358.09375 144.066406 C 358.09375 137.664062 352.90625 132.472656 346.503906 132.472656 " fill-opacity="1" fill-rule="nonzero"/><path fill="#000000" d="M 56.425781 133.167969 C 50.414062 133.167969 45.523438 138.058594 45.523438 144.066406 L 45.523438 342.949219 C 45.523438 348.960938 50.414062 353.847656 56.425781 353.847656 L 346.503906 353.847656 C 352.511719 353.847656 357.402344 348.960938 357.402344 342.949219 L 357.402344 144.066406 C 357.402344 138.058594 352.511719 133.167969 346.503906 133.167969 Z M 346.503906 355.234375 L 56.425781 355.234375 C 49.652344 355.234375 44.140625 349.722656 44.140625 342.949219 L 44.140625 144.066406 C 44.140625 137.292969 49.652344 131.78125 56.425781 131.78125 L 346.503906 131.78125 C 353.277344 131.78125 358.789062 137.292969 358.789062 144.066406 L 358.789062 342.949219 C 358.789062 349.722656 353.277344 355.234375 346.503906 355.234375 " fill-opacity="1" fill-rule="nonzero"/><path fill="#ffffff" d="M 270.765625 397.304688 L 132.164062 397.304688 C 128.179688 397.304688 124.953125 400.535156 124.953125 404.519531 C 124.953125 408.5 128.179688 411.730469 132.164062 411.730469 L 270.765625 411.730469 C 274.75 411.730469 277.980469 408.5 277.980469 404.519531 C 277.980469 400.535156 274.75 397.304688 270.765625 397.304688 " fill-opacity="1" fill-rule="nonzero"/><path fill="#000000" d="M 132.164062 397.996094 C 128.570312 397.996094 125.644531 400.921875 125.644531 404.519531 C 125.644531 408.113281 128.570312 411.039062 132.164062 411.039062 L 270.765625 411.039062 C 274.359375 411.039062 277.285156 408.113281 277.285156 404.519531 C 277.285156 400.921875 274.359375 397.996094 270.765625 397.996094 Z M 270.765625 412.425781 L 132.164062 412.425781 C 127.804688 412.425781 124.257812 408.878906 124.257812 404.519531 C 124.257812 400.160156 127.804688 396.613281 132.164062 396.613281 L 270.765625 396.613281 C 275.125 396.613281 278.671875 400.160156 278.671875 404.519531 C 278.671875 408.878906 275.125 412.425781 270.765625 412.425781 " fill-opacity="1" fill-rule="nonzero"/><path fill="#ffffff" d="M 55.136719 290.6875 L 55.136719 338.472656 C 55.136719 341.65625 57.71875 344.238281 60.902344 344.238281 L 342.027344 344.238281 C 345.210938 344.238281 347.792969 341.65625 347.792969 338.472656 L 347.792969 260.109375 L 55.136719 290.6875 " fill-opacity="1" fill-rule="nonzero"/><path fill="#000000" d="M 342.027344 344.929688 L 60.902344 344.929688 C 57.339844 344.929688 54.445312 342.03125 54.445312 338.472656 L 54.445312 290.6875 C 54.445312 290.304688 54.753906 289.996094 55.136719 289.996094 C 55.519531 289.996094 55.828125 290.304688 55.828125 290.6875 L 55.828125 338.472656 C 55.828125 341.269531 58.105469 343.542969 60.902344 343.542969 L 342.027344 343.542969 C 344.824219 343.542969 347.097656 341.269531 347.097656 338.472656 L 347.097656 260.109375 C 347.097656 259.726562 347.410156 259.417969 347.792969 259.417969 C 348.175781 259.417969 348.484375 259.726562 348.484375 260.109375 L 348.484375 338.472656 C 348.484375 342.03125 345.589844 344.929688 342.027344 344.929688 " fill-opacity="1" fill-rule="nonzero"/><path fill="#000000" d="M 55.136719 171.164062 C 54.753906 171.164062 54.445312 170.855469 54.445312 170.472656 L 54.445312 158.246094 C 54.445312 157.863281 54.753906 157.554688 55.136719 157.554688 C 55.519531 157.554688 55.828125 157.863281 55.828125 158.246094 L 55.828125 170.472656 C 55.828125 170.855469 55.519531 171.164062 55.136719 171.164062 " fill-opacity="1" fill-rule="nonzero"/><path fill="#ffffff" d="M 77.621094 142.777344 L 60.902344 142.777344 C 57.71875 142.777344 55.136719 145.355469 55.136719 148.539062 L 77.621094 142.777344 " fill-opacity="1" fill-rule="nonzero"/><path fill="#000000" d="M 55.136719 149.234375 C 54.753906 149.234375 54.445312 148.921875 54.445312 148.542969 C 54.445312 144.980469 57.339844 142.082031 60.902344 142.082031 L 77.621094 142.082031 C 78.003906 142.082031 78.3125 142.394531 78.3125 142.777344 C 78.3125 143.160156 78.003906 143.46875 77.621094 143.46875 L 60.902344 143.46875 C 58.105469 143.46875 55.828125 145.742188 55.828125 148.542969 C 55.828125 148.921875 55.519531 149.234375 55.136719 149.234375 " fill-opacity="1" fill-rule="nonzero"/><path fill="#ffffff" d="M 347.792969 158.246094 L 347.792969 148.542969 C 347.792969 145.355469 345.210938 142.777344 342.027344 142.777344 L 324.835938 142.777344 L 347.792969 158.246094 " fill-opacity="1" fill-rule="nonzero"/><path fill="#000000" d="M 347.792969 158.941406 C 347.410156 158.941406 347.097656 158.628906 347.097656 158.246094 L 347.097656 148.542969 C 347.097656 145.746094 344.824219 143.472656 342.027344 143.472656 L 324.832031 143.472656 C 324.453125 143.472656 324.140625 143.160156 324.140625 142.777344 C 324.140625 142.394531 324.453125 142.085938 324.832031 142.085938 L 342.027344 142.085938 C 345.589844 142.085938 348.484375 144.980469 348.484375 148.542969 L 348.484375 158.246094 C 348.484375 158.628906 348.175781 158.941406 347.792969 158.941406 " fill-opacity="1" fill-rule="nonzero"/><path fill="#000000" d="M 347.792969 186.027344 C 347.410156 186.027344 347.097656 185.714844 347.097656 185.332031 L 347.097656 171.820312 C 347.097656 171.4375 347.410156 171.125 347.792969 171.125 C 348.175781 171.125 348.484375 171.4375 348.484375 171.820312 L 348.484375 185.332031 C 348.484375 185.714844 348.175781 186.027344 347.792969 186.027344 " fill-opacity="1" fill-rule="nonzero"/><path fill="#caddff" d="M 307.425781 343.480469 L 90.511719 343.480469 L 90.511719 95.175781 C 90.511719 86.136719 97.839844 78.804688 106.882812 78.804688 L 291.054688 78.804688 C 300.09375 78.804688 307.425781 86.136719 307.425781 95.175781 L 307.425781 343.480469 " fill-opacity="1" fill-rule="nonzero"/><path fill="#000000" d="M 307.425781 113.394531 C 307.042969 113.394531 306.730469 113.085938 306.730469 112.703125 L 306.730469 95.179688 C 306.730469 86.53125 299.699219 79.5 291.050781 79.5 L 271.699219 79.5 C 271.320312 79.5 271.007812 79.1875 271.007812 78.804688 C 271.007812 78.421875 271.320312 78.113281 271.699219 78.113281 L 291.050781 78.113281 C 300.460938 78.113281 308.117188 85.769531 308.117188 95.179688 L 308.117188 112.703125 C 308.117188 113.085938 307.804688 113.394531 307.425781 113.394531 " fill-opacity="1" fill-rule="nonzero"/><path fill="#000000" d="M 230.210938 79.5 L 189.503906 79.5 C 189.125 79.5 188.8125 79.1875 188.8125 78.804688 C 188.8125 78.421875 189.125 78.113281 189.503906 78.113281 L 230.210938 78.113281 C 230.589844 78.113281 230.902344 78.421875 230.902344 78.804688 C 230.902344 79.1875 230.589844 79.5 230.210938 79.5 " fill-opacity="1" fill-rule="nonzero"/><path fill="#000000" d="M 90.511719 166.648438 C 90.128906 166.648438 89.816406 166.339844 89.816406 165.957031 L 89.816406 95.179688 C 89.816406 85.769531 97.472656 78.113281 106.882812 78.113281 L 171.957031 78.113281 C 172.339844 78.113281 172.652344 78.421875 172.652344 78.804688 C 172.652344 79.1875 172.339844 79.5 171.957031 79.5 L 106.882812 79.5 C 98.234375 79.5 91.203125 86.53125 91.203125 95.179688 L 91.203125 165.957031 C 91.203125 166.339844 90.890625 166.648438 90.511719 166.648438 " fill-opacity="1" fill-rule="nonzero"/><path fill="#791acc" d="M 211.238281 101.230469 L 106.527344 101.230469 L 106.527344 94.621094 L 211.238281 94.621094 L 211.238281 101.230469 " fill-opacity="1" fill-rule="nonzero"/><path fill="#ffffff" d="M 264.152344 112.703125 L 141.75 112.703125 L 141.75 105.824219 L 264.152344 105.824219 L 264.152344 112.703125 " fill-opacity="1" fill-rule="nonzero"/><path fill="#ffffff" d="M 291.410156 124.042969 L 169.007812 124.042969 L 169.007812 117.164062 L 291.410156 117.164062 L 291.410156 124.042969 " fill-opacity="1" fill-rule="nonzero"/><path fill="#ffffff" d="M 276.652344 135.378906 L 213.386719 135.378906 L 213.386719 128.503906 L 276.652344 128.503906 L 276.652344 135.378906 " fill-opacity="1" fill-rule="nonzero"/><path fill="#791acc" d="M 211.238281 191.941406 L 106.527344 191.941406 L 106.527344 185.332031 L 211.238281 185.332031 L 211.238281 191.941406 " fill-opacity="1" fill-rule="nonzero"/><path fill="#ffffff" d="M 264.152344 203.414062 L 141.75 203.414062 L 141.75 196.535156 L 264.152344 196.535156 L 264.152344 203.414062 " fill-opacity="1" fill-rule="nonzero"/><path fill="#ffffff" d="M 291.410156 214.753906 L 169.011719 214.753906 L 169.011719 207.875 L 291.410156 207.875 L 291.410156 214.753906 " fill-opacity="1" fill-rule="nonzero"/><path fill="#ffffff" d="M 291.410156 226.09375 L 213.382812 226.09375 L 213.382812 219.214844 L 291.410156 219.214844 L 291.410156 226.09375 " fill-opacity="1" fill-rule="nonzero"/><path fill="#ffffff" d="M 264.152344 146.71875 L 141.75 146.71875 L 141.75 139.84375 L 264.152344 139.84375 L 264.152344 146.71875 " fill-opacity="1" fill-rule="nonzero"/><path fill="#ffffff" d="M 291.410156 158.058594 L 169.011719 158.058594 L 169.011719 151.183594 L 291.410156 151.183594 L 291.410156 158.058594 " fill-opacity="1" fill-rule="nonzero"/><path fill="#ffffff" d="M 261.890625 180.738281 L 213.382812 180.738281 L 213.382812 173.859375 L 261.890625 173.859375 L 261.890625 180.738281 " fill-opacity="1" fill-rule="nonzero"/><path fill="#ffffff" d="M 291.410156 169.398438 L 213.382812 169.398438 L 213.382812 162.519531 L 291.410156 162.519531 L 291.410156 169.398438 " fill-opacity="1" fill-rule="nonzero"/><path fill="#791acc" d="M 211.238281 237.296875 L 106.527344 237.296875 L 106.527344 230.6875 L 211.238281 230.6875 L 211.238281 237.296875 " fill-opacity="1" fill-rule="nonzero"/><path fill="#ffffff" d="M 264.152344 248.769531 L 141.75 248.769531 L 141.75 241.894531 L 264.152344 241.894531 L 264.152344 248.769531 " fill-opacity="1" fill-rule="nonzero"/><path fill="#ffffff" d="M 287.472656 260.109375 L 169.011719 260.109375 L 169.011719 253.234375 L 287.472656 253.234375 L 287.472656 260.109375 " fill-opacity="1" fill-rule="nonzero"/><path fill="#791acc" d="M 291.410156 271.449219 L 213.382812 271.449219 L 213.382812 264.570312 L 291.410156 264.570312 L 291.410156 271.449219 " fill-opacity="1" fill-rule="nonzero"/><path fill="#791acc" d="M 235.148438 328.144531 L 169.011719 328.144531 L 169.011719 321.265625 L 235.148438 321.265625 L 235.148438 328.144531 " fill-opacity="1" fill-rule="nonzero"/><path fill="#ffffff" d="M 264.152344 282.785156 L 141.75 282.785156 L 141.75 275.910156 L 264.152344 275.910156 L 264.152344 282.785156 " fill-opacity="1" fill-rule="nonzero"/><path fill="#ffffff" d="M 291.410156 294.125 L 169.011719 294.125 L 169.011719 287.25 L 291.410156 287.25 L 291.410156 294.125 " fill-opacity="1" fill-rule="nonzero"/><path fill="#ffffff" d="M 291.410156 316.804688 L 213.382812 316.804688 L 213.382812 309.925781 L 291.410156 309.925781 L 291.410156 316.804688 " fill-opacity="1" fill-rule="nonzero"/><path fill="#ffffff" d="M 258.054688 305.464844 L 213.382812 305.464844 L 213.382812 298.589844 L 258.054688 298.589844 L 258.054688 305.464844 " fill-opacity="1" fill-rule="nonzero"/><path fill="#ffffff" d="M 376.960938 240.238281 C 376.964844 239.625 342.75 234.21875 340.542969 227.96875 C 337.25 218.636719 333.144531 207.421875 333.144531 207.421875 L 324.601562 212.816406 L 330.101562 239.660156 L 376.960938 240.238281 " fill-opacity="1" fill-rule="nonzero"/><path fill="#000000" d="M 330.667969 238.972656 L 370.734375 239.46875 C 355.523438 236.207031 341.4375 232.582031 339.890625 228.199219 C 337.140625 220.410156 333.789062 211.207031 332.789062 208.464844 L 325.375 213.148438 Z M 376.960938 240.929688 C 376.957031 240.929688 376.953125 240.929688 376.953125 240.929688 L 330.09375 240.351562 C 329.765625 240.347656 329.488281 240.117188 329.421875 239.796875 L 323.921875 212.957031 C 323.863281 212.671875 323.984375 212.382812 324.230469 212.230469 L 332.773438 206.835938 C 332.953125 206.726562 333.167969 206.699219 333.367188 206.765625 C 333.5625 206.835938 333.722656 206.988281 333.796875 207.183594 C 333.832031 207.296875 337.9375 218.511719 341.195312 227.738281 C 342.730469 232.085938 363.164062 236.4375 371.890625 238.300781 C 377.65625 239.527344 377.65625 239.527344 377.652344 240.242188 C 377.652344 240.425781 377.578125 240.601562 377.445312 240.730469 C 377.316406 240.859375 377.140625 240.929688 376.960938 240.929688 " fill-opacity="1" fill-rule="nonzero"/><path fill="#2e98ff" d="M 279.378906 178.578125 C 287.539062 175.917969 299.96875 174.007812 314.828125 178.738281 C 320.246094 180.464844 324.128906 185.234375 324.800781 190.882812 L 336.902344 260.570312 C 337.503906 265.636719 330.734375 270.5625 325.960938 272.371094 C 320.976562 274.257812 313.441406 276.046875 302.777344 276.046875 C 291.339844 276.046875 283.03125 276.710938 278.394531 274.679688 C 274.542969 272.992188 268.746094 268.914062 268.550781 264.714844 L 269.390625 193.082031 C 269.089844 186.554688 273.167969 180.605469 279.378906 178.578125 " fill-opacity="1" fill-rule="nonzero"/><path fill="#2e98ff" d="M 336.539062 208.523438 C 336.539062 208.523438 326.875 181.757812 316.039062 179.1875 L 321.550781 217.109375 L 336.539062 208.523438 " fill-opacity="1" fill-rule="nonzero"/><path fill="#2e98ff" d="M 256.847656 221.6875 C 256.847656 221.6875 257.90625 203.785156 259.453125 196.863281 C 262.707031 182.308594 276.59375 180.105469 276.59375 180.105469 L 278.277344 219.199219 L 256.847656 221.6875 " fill-opacity="1" fill-rule="nonzero"/><path fill="#000000" d="M 290.175781 184.257812 C 283.65625 184.257812 278.527344 183.355469 278.15625 183.289062 C 277.777344 183.21875 277.53125 182.859375 277.597656 182.484375 C 277.664062 182.105469 278.027344 181.855469 278.402344 181.925781 C 278.558594 181.953125 294.402344 184.746094 305.863281 180.496094 C 306.222656 180.363281 306.621094 180.546875 306.753906 180.90625 C 306.886719 181.265625 306.703125 181.660156 306.347656 181.792969 C 301.171875 183.710938 295.253906 184.257812 290.175781 184.257812 " fill-opacity="1" fill-rule="nonzero"/><path fill="#ffffff" d="M 259.554688 220.945312 C 259.554688 220.945312 258.511719 234.601562 263.921875 243.769531 C 270.382812 254.71875 302.976562 239.972656 302.976562 239.972656 L 306.765625 237.828125 C 309.332031 236.371094 312.386719 236.0625 315.191406 236.964844 L 321.316406 238.945312 C 321.316406 238.945312 316.257812 232.878906 311.957031 230.5625 C 309.941406 229.472656 307.328125 230.5 305.121094 231.902344 C 301.320312 234.304688 296.851562 235.433594 292.355469 235.300781 L 279.390625 234.914062 C 277.214844 234.851562 275.429688 233.167969 275.242188 230.996094 L 274.257812 219.699219 L 259.554688 220.945312 " fill-opacity="1" fill-rule="nonzero"/><path fill="#000000" d="M 260.210938 221.585938 C 260.09375 224.273438 259.910156 235.609375 264.519531 243.417969 C 270.515625 253.582031 301.558594 239.847656 302.660156 239.355469 L 306.425781 237.21875 C 309.148438 235.679688 312.421875 235.347656 315.402344 236.308594 L 319.09375 237.5 C 317.269531 235.550781 314.277344 232.601562 311.628906 231.171875 C 309.8125 230.195312 307.285156 231.347656 305.488281 232.488281 C 301.640625 234.921875 297.097656 236.144531 292.335938 235.992188 L 279.367188 235.609375 C 276.839844 235.53125 274.769531 233.578125 274.550781 231.058594 L 273.625 220.453125 Z M 273.800781 248.496094 C 269.132812 248.496094 265.222656 247.335938 263.324219 244.121094 C 257.867188 234.871094 258.820312 221.457031 258.863281 220.890625 C 258.890625 220.550781 259.15625 220.285156 259.496094 220.253906 L 274.195312 219.011719 C 274.578125 218.984375 274.910156 219.257812 274.941406 219.640625 L 275.929688 230.9375 C 276.089844 232.757812 277.585938 234.171875 279.410156 234.222656 L 292.375 234.609375 C 296.859375 234.738281 301.136719 233.605469 304.746094 231.316406 C 307.816406 229.371094 310.355469 228.910156 312.28125 229.953125 C 316.652344 232.308594 321.632812 238.25 321.84375 238.5 C 322.039062 238.738281 322.058594 239.074219 321.886719 239.332031 C 321.714844 239.585938 321.390625 239.695312 321.097656 239.605469 L 314.976562 237.628906 C 312.363281 236.785156 309.496094 237.074219 307.105469 238.429688 L 303.316406 240.574219 C 303.300781 240.585938 303.277344 240.59375 303.261719 240.605469 C 302.289062 241.042969 285.625 248.496094 273.800781 248.496094 " fill-opacity="1" fill-rule="nonzero"/><path fill="#ffffff" d="M 309.574219 371.132812 L 302.507812 392.214844 C 302.507812 392.214844 310.203125 391.558594 310.9375 391.703125 C 311.675781 391.84375 320.675781 372.472656 320.675781 372.472656 L 309.574219 371.132812 " fill-opacity="1" fill-rule="nonzero"/><path fill="#000000" d="M 311.039062 391.015625 C 311.046875 391.019531 311.058594 391.019531 311.070312 391.023438 C 311.058594 391.019531 311.046875 391.019531 311.039062 391.015625 Z M 310.050781 371.886719 L 303.496094 391.4375 C 305.652344 391.257812 309.398438 390.964844 310.695312 390.996094 C 311.8125 389.507812 316.546875 379.6875 319.644531 373.046875 Z M 302.503906 392.90625 C 302.292969 392.90625 302.09375 392.8125 301.957031 392.640625 C 301.816406 392.460938 301.773438 392.214844 301.847656 391.996094 L 308.914062 370.910156 C 309.019531 370.601562 309.328125 370.40625 309.652344 370.445312 L 320.757812 371.785156 C 320.976562 371.8125 321.171875 371.945312 321.28125 372.136719 C 321.386719 372.332031 321.398438 372.566406 321.300781 372.765625 C 321.28125 372.816406 319.023438 377.671875 316.703125 382.445312 C 311.785156 392.578125 311.480469 392.515625 310.804688 392.382812 C 310.3125 392.3125 306.226562 392.589844 302.5625 392.902344 C 302.542969 392.90625 302.523438 392.90625 302.503906 392.90625 " fill-opacity="1" fill-rule="nonzero"/><path fill="#791acc" d="M 304.121094 387.582031 C 304.121094 387.582031 314.75 383.226562 316.714844 388.691406 C 319.214844 395.644531 323.121094 406.257812 323.121094 406.257812 C 323.785156 408.101562 322.511719 410.074219 320.554688 410.230469 C 316.671875 410.539062 310.878906 410.792969 308.179688 409.847656 C 303.921875 408.355469 296.851562 394.871094 296.851562 394.871094 L 299.03125 383.398438 C 299.03125 383.398438 302.886719 382.855469 304.121094 387.582031 " fill-opacity="1" fill-rule="nonzero"/><path fill="#000000" d="M 297.578125 394.761719 C 299.613281 398.59375 305.191406 408.0625 308.410156 409.195312 C 310.378906 409.886719 314.675781 410.007812 320.5 409.539062 C 321.21875 409.480469 321.851562 409.101562 322.242188 408.5 C 322.628906 407.898438 322.714844 407.164062 322.472656 406.492188 C 322.433594 406.386719 318.535156 395.804688 316.066406 388.925781 C 315.757812 388.074219 315.195312 387.476562 314.347656 387.097656 C 310.921875 385.574219 304.453125 388.195312 304.386719 388.222656 C 304.203125 388.296875 303.992188 388.289062 303.816406 388.199219 C 303.636719 388.113281 303.507812 387.949219 303.457031 387.753906 C 302.625 384.585938 300.558594 384.113281 299.609375 384.070312 Z M 314.300781 411.203125 C 311.792969 411.203125 309.445312 411.027344 307.953125 410.5 C 303.5625 408.960938 296.976562 396.59375 296.242188 395.191406 C 296.171875 395.050781 296.144531 394.894531 296.175781 394.742188 L 298.351562 383.269531 C 298.410156 382.976562 298.644531 382.753906 298.9375 382.710938 C 298.980469 382.707031 302.992188 382.195312 304.570312 386.671875 C 306.460938 385.992188 311.648438 384.382812 314.910156 385.832031 C 316.105469 386.363281 316.933594 387.246094 317.367188 388.457031 C 319.835938 395.328125 323.734375 405.910156 323.773438 406.015625 C 324.164062 407.105469 324.027344 408.28125 323.40625 409.25 C 322.78125 410.21875 321.761719 410.828125 320.613281 410.917969 C 318.667969 411.078125 316.425781 411.203125 314.300781 411.203125 " fill-opacity="1" fill-rule="nonzero"/><path fill="#000000" d="M 320.398438 406.328125 L 309.484375 406.328125 C 309.101562 406.328125 308.792969 406.019531 308.792969 405.636719 C 308.792969 405.253906 309.101562 404.945312 309.484375 404.945312 L 320.398438 404.945312 C 320.78125 404.945312 321.09375 405.253906 321.09375 405.636719 C 321.09375 406.019531 320.78125 406.328125 320.398438 406.328125 " fill-opacity="1" fill-rule="nonzero"/><path fill="#ffffff" d="M 289.535156 376.3125 L 291.9375 397.519531 L 301.597656 394.871094 L 300.851562 375.761719 L 289.535156 376.3125 " fill-opacity="1" fill-rule="nonzero"/><path fill="#000000" d="M 290.308594 376.96875 L 292.535156 396.636719 L 300.882812 394.347656 L 300.1875 376.488281 Z M 291.9375 398.210938 C 291.800781 398.210938 291.664062 398.171875 291.550781 398.089844 C 291.378906 397.980469 291.269531 397.800781 291.25 397.597656 L 288.847656 376.390625 C 288.828125 376.199219 288.886719 376.007812 289.007812 375.863281 C 289.132812 375.71875 289.3125 375.628906 289.503906 375.617188 L 300.816406 375.070312 C 300.996094 375.0625 301.183594 375.128906 301.320312 375.25 C 301.457031 375.375 301.539062 375.550781 301.542969 375.734375 L 302.285156 394.84375 C 302.300781 395.164062 302.089844 395.453125 301.777344 395.539062 L 292.121094 398.1875 C 292.058594 398.203125 291.996094 398.210938 291.9375 398.210938 " fill-opacity="1" fill-rule="nonzero"/><path fill="#791acc" d="M 291.027344 413.144531 L 306.308594 413.144531 C 308.375 413.144531 309.964844 411.3125 309.660156 409.265625 C 309.148438 405.8125 307.488281 400.089844 302.507812 392.214844 C 301.960938 391.355469 301.011719 390.832031 299.996094 390.832031 L 295.347656 390.832031 C 294.546875 390.832031 293.871094 391.4375 293.789062 392.234375 L 293.441406 395.589844 L 291.414062 392.914062 C 291.414062 392.914062 287.804688 400.523438 287.636719 409.691406 C 287.601562 411.585938 289.128906 413.144531 291.027344 413.144531 " fill-opacity="1" fill-rule="nonzero"/><path fill="#000000" d="M 291.582031 394.285156 C 290.617188 396.671875 288.453125 402.765625 288.328125 409.707031 C 288.3125 410.433594 288.585938 411.121094 289.101562 411.640625 C 289.609375 412.164062 290.296875 412.453125 291.023438 412.453125 L 306.304688 412.453125 C 307.09375 412.453125 307.835938 412.109375 308.351562 411.515625 C 308.863281 410.925781 309.089844 410.140625 308.976562 409.367188 C 308.480469 406.015625 306.851562 400.378906 301.917969 392.585938 C 301.503906 391.929688 300.769531 391.523438 299.996094 391.523438 L 295.34375 391.523438 C 294.898438 391.523438 294.527344 391.859375 294.480469 392.308594 L 294.128906 395.660156 C 294.097656 395.941406 293.898438 396.179688 293.625 396.253906 C 293.347656 396.332031 293.058594 396.234375 292.886719 396.003906 Z M 306.304688 413.835938 L 291.023438 413.835938 C 289.921875 413.835938 288.886719 413.402344 288.109375 412.613281 C 287.335938 411.824219 286.921875 410.785156 286.941406 409.679688 C 287.113281 400.46875 290.636719 392.933594 290.789062 392.617188 C 290.894531 392.398438 291.101562 392.25 291.34375 392.226562 C 291.585938 392.199219 291.820312 392.304688 291.964844 392.496094 L 292.929688 393.773438 L 293.097656 392.164062 C 293.21875 391.007812 294.183594 390.136719 295.34375 390.136719 L 299.996094 390.136719 C 301.257812 390.136719 302.414062 390.777344 303.089844 391.84375 C 308.152344 399.84375 309.828125 405.679688 310.34375 409.164062 C 310.515625 410.335938 310.175781 411.523438 309.398438 412.421875 C 308.621094 413.320312 307.496094 413.835938 306.304688 413.835938 " fill-opacity="1" fill-rule="nonzero"/><path fill="#000000" d="M 308.183594 410.183594 L 289.890625 410.183594 C 289.507812 410.183594 289.199219 409.871094 289.199219 409.492188 C 289.199219 409.109375 289.507812 408.796875 289.890625 408.796875 L 308.183594 408.796875 C 308.566406 408.796875 308.875 409.109375 308.875 409.492188 C 308.875 409.871094 308.566406 410.183594 308.183594 410.183594 " fill-opacity="1" fill-rule="nonzero"/><path fill="#000000" d="M 325.808594 248.949219 C 325.410156 247.972656 324.597656 247.21875 323.589844 246.90625 C 318 245.152344 298.519531 240.53125 278.464844 253.394531 C 277.519531 254 276.914062 255.015625 276.832031 256.140625 C 276.109375 266.332031 273.402344 319.609375 290.257812 382.691406 L 301.609375 381.882812 L 303.925781 274.023438 C 303.925781 274.023438 320.742188 313.566406 307.066406 376.492188 L 318.875 378.675781 C 318.875 378.675781 336.15625 355.949219 339.25 321.230469 C 341.988281 290.515625 328.871094 256.410156 325.808594 248.949219 " fill-opacity="1" fill-rule="nonzero"/><path fill="#ffffff" d="M 293.152344 332.808594 C 293.140625 332.808594 293.128906 332.808594 293.121094 332.804688 C 282.414062 332.347656 281.203125 317.824219 281.195312 317.679688 C 281.164062 317.296875 281.453125 316.964844 281.832031 316.9375 C 282.207031 316.910156 282.546875 317.191406 282.574219 317.574219 C 282.585938 317.710938 283.703125 331.011719 293.179688 331.421875 C 293.5625 331.441406 293.859375 331.761719 293.84375 332.144531 C 293.828125 332.519531 293.519531 332.808594 293.152344 332.808594 " fill-opacity="1" fill-rule="nonzero"/><path fill="#ffffff" d="M 304.914062 284.605469 C 304.542969 284.605469 304.234375 284.308594 304.222656 283.933594 L 303.820312 270.441406 C 303.8125 270.207031 303.925781 269.988281 304.117188 269.851562 L 311.191406 264.878906 C 311.503906 264.660156 311.9375 264.730469 312.15625 265.046875 C 312.375 265.359375 312.300781 265.792969 311.988281 266.011719 L 305.214844 270.773438 L 305.605469 283.890625 C 305.617188 284.273438 305.316406 284.59375 304.933594 284.605469 C 304.925781 284.605469 304.921875 284.605469 304.914062 284.605469 " fill-opacity="1" fill-rule="nonzero"/><path fill="#000000" d="M 289.609375 152.992188 C 285.292969 149.277344 284.308594 148.773438 283.050781 146.644531 C 282.027344 144.910156 279.738281 141.035156 281.285156 136.9375 C 282.628906 133.398438 286.324219 131.257812 289.722656 131.074219 C 292.777344 130.910156 295.007812 132.355469 296.1875 133.117188 C 296.699219 133.453125 301.246094 136.484375 302.144531 141.433594 C 302.386719 142.777344 302.203125 143.398438 302.816406 144.238281 C 304.199219 146.136719 306.695312 145.167969 308.425781 146.738281 C 310.597656 148.71875 309.589844 152.925781 309.507812 153.257812 C 308.371094 157.746094 303.519531 160.722656 299.5625 160.308594 C 297.28125 160.070312 297.527344 159.800781 289.609375 152.992188 " fill-opacity="1" fill-rule="nonzero"/><path fill="#ffffff" d="M 301.507812 175.203125 C 299.421875 173.824219 298.203125 171.457031 298.261719 168.957031 L 298.496094 158.570312 C 298.570312 158.503906 298.640625 158.441406 298.707031 158.375 C 298.707031 158.375 302.867188 158.652344 303.472656 156.535156 C 304.078125 154.417969 301.136719 154.011719 301.136719 154.011719 C 301.136719 154.011719 303.914062 148.164062 296.730469 148.230469 C 294.800781 148.25 294.109375 145.050781 290.945312 144.335938 C 290.945312 144.335938 289.378906 144.203125 287.792969 148.308594 L 284.316406 153.453125 L 286.050781 154.40625 C 285.625 156.359375 285.441406 158.519531 285.703125 160.804688 C 285.777344 161.464844 286.234375 162.019531 286.863281 162.222656 C 287.386719 162.390625 288.089844 162.570312 288.917969 162.667969 L 288.359375 169.617188 C 288.113281 172.660156 286.519531 175.429688 284.019531 177.183594 C 281.609375 178.875 279.382812 180.070312 279.382812 180.070312 C 279.382812 180.070312 292.191406 181.820312 306.921875 178.460938 C 306.921875 178.460938 304.074219 176.90625 301.507812 175.203125 " fill-opacity="1" fill-rule="nonzero"/><path fill="#000000" d="M 290.886719 145.027344 Z M 281.589844 179.59375 C 285.582031 179.902344 294.734375 180.25 304.996094 178.167969 C 303.933594 177.550781 302.484375 176.683594 301.125 175.78125 C 298.835938 174.265625 297.503906 171.707031 297.566406 168.9375 L 297.804688 158.558594 C 297.808594 158.371094 297.890625 158.191406 298.027344 158.0625 L 298.230469 157.871094 C 298.371094 157.738281 298.5625 157.671875 298.753906 157.683594 C 299.683594 157.742188 302.441406 157.628906 302.804688 156.34375 C 302.925781 155.917969 302.824219 155.683594 302.734375 155.546875 C 302.382812 155 301.367188 154.742188 301.039062 154.699219 C 300.824219 154.667969 300.632812 154.53125 300.527344 154.339844 C 300.425781 154.144531 300.417969 153.910156 300.511719 153.714844 C 300.519531 153.695312 301.480469 151.613281 300.609375 150.253906 C 300.03125 149.355469 298.710938 148.90625 296.738281 148.925781 C 296.730469 148.925781 296.71875 148.925781 296.714844 148.925781 C 295.511719 148.925781 294.714844 148.046875 293.941406 147.195312 C 293.136719 146.308594 292.304688 145.390625 290.898438 145.035156 C 290.671875 145.097656 289.609375 145.53125 288.4375 148.558594 C 288.417969 148.609375 288.394531 148.652344 288.363281 148.699219 L 285.316406 153.210938 L 286.386719 153.796875 C 286.65625 153.945312 286.792969 154.253906 286.726562 154.554688 C 286.269531 156.640625 286.160156 158.71875 286.390625 160.726562 C 286.4375 161.117188 286.703125 161.441406 287.078125 161.5625 C 287.691406 161.761719 288.335938 161.90625 289 161.980469 C 289.367188 162.023438 289.636719 162.351562 289.609375 162.722656 L 289.050781 169.675781 C 288.789062 172.925781 287.097656 175.867188 284.417969 177.75 C 283.386719 178.472656 282.398438 179.101562 281.589844 179.59375 Z M 287.925781 181.210938 C 282.714844 181.210938 279.351562 180.765625 279.285156 180.757812 C 278.988281 180.71875 278.75 180.488281 278.695312 180.195312 C 278.644531 179.898438 278.789062 179.601562 279.050781 179.460938 C 279.074219 179.449219 281.273438 178.265625 283.621094 176.613281 C 285.964844 174.972656 287.4375 172.402344 287.667969 169.5625 L 288.175781 163.261719 C 287.652344 163.167969 287.144531 163.042969 286.648438 162.882812 C 285.765625 162.59375 285.121094 161.8125 285.015625 160.886719 C 284.785156 158.890625 284.871094 156.832031 285.269531 154.769531 L 283.984375 154.0625 C 283.808594 153.964844 283.6875 153.804688 283.644531 153.617188 C 283.597656 153.425781 283.632812 153.226562 283.742188 153.066406 L 287.171875 147.984375 C 288.855469 143.6875 290.65625 143.609375 291 143.644531 C 291.035156 143.648438 291.066406 143.65625 291.097656 143.660156 C 292.996094 144.089844 294.089844 145.296875 294.96875 146.265625 C 295.683594 147.054688 296.152344 147.539062 296.714844 147.539062 C 296.753906 147.539062 296.808594 147.539062 296.851562 147.539062 C 299.285156 147.539062 300.941406 148.203125 301.777344 149.511719 C 302.652344 150.878906 302.355469 152.554688 302.058594 153.523438 C 302.660156 153.71875 303.441406 154.09375 303.894531 154.785156 C 304.257812 155.34375 304.339844 156.015625 304.136719 156.726562 C 303.535156 158.84375 300.558594 159.082031 299.242188 159.082031 C 299.222656 159.082031 299.199219 159.082031 299.175781 159.082031 L 298.953125 168.972656 C 298.898438 171.261719 299.996094 173.375 301.886719 174.625 C 304.402344 176.292969 307.226562 177.835938 307.25 177.855469 C 307.503906 177.992188 307.644531 178.269531 307.605469 178.554688 C 307.566406 178.84375 307.355469 179.074219 307.074219 179.136719 C 299.828125 180.792969 293.003906 181.210938 287.925781 181.210938 " fill-opacity="1" fill-rule="nonzero"/><path fill="#ffffff" d="M 288.917969 162.667969 C 288.917969 162.667969 293.476562 162.828125 295.289062 160.347656 L 288.917969 162.667969 " fill-opacity="1" fill-rule="nonzero"/><path fill="#000000" d="M 289.105469 163.359375 C 288.992188 163.359375 288.917969 163.359375 288.894531 163.359375 C 288.511719 163.34375 288.214844 163.023438 288.226562 162.644531 C 288.242188 162.261719 288.566406 161.96875 288.941406 161.972656 C 288.984375 161.976562 293.160156 162.089844 294.730469 159.9375 C 294.957031 159.628906 295.390625 159.558594 295.699219 159.789062 C 296.007812 160.011719 296.074219 160.445312 295.847656 160.753906 C 294.058594 163.207031 290.074219 163.359375 289.105469 163.359375 " fill-opacity="1" fill-rule="nonzero"/><path fill="#000000" d="M 384.554688 237.53125 L 340.9375 237.53125 L 373.273438 187.800781 C 374.285156 186.25 376.046875 185.308594 377.9375 185.308594 L 413.335938 185.308594 C 415.582031 185.308594 416.949219 187.714844 415.75 189.558594 L 384.554688 237.53125 " fill-opacity="1" fill-rule="nonzero"/><path fill="#caddff" d="M 393.859375 202.742188 C 392.445312 204.925781 389.394531 206.691406 387.050781 206.691406 C 384.710938 206.691406 383.960938 204.925781 385.378906 202.742188 C 386.792969 200.566406 389.84375 198.796875 392.183594 198.796875 C 394.527344 198.796875 395.277344 200.566406 393.859375 202.742188 " fill-opacity="1" fill-rule="nonzero"/><path fill="#000000" d="M 380.207031 241.6875 L 307.585938 241.6875 C 305.097656 241.6875 303.078125 239.664062 303.078125 237.179688 L 384.710938 237.179688 C 384.710938 239.664062 382.695312 241.6875 380.207031 241.6875 " fill-opacity="1" fill-rule="nonzero"/><path fill="#ffffff" d="M 382.289062 238.269531 L 344.828125 238.269531 C 344.445312 238.269531 344.136719 237.960938 344.136719 237.578125 C 344.136719 237.195312 344.445312 236.886719 344.828125 236.886719 L 382.289062 236.886719 C 382.667969 236.886719 382.980469 237.195312 382.980469 237.578125 C 382.980469 237.960938 382.667969 238.269531 382.289062 238.269531 " fill-opacity="1" fill-rule="nonzero"/><path fill="#2e98ff" d="M 399.484375 85.371094 L 201.691406 85.371094 C 197.648438 85.371094 194.371094 88.648438 194.371094 92.695312 L 194.371094 116.148438 C 194.371094 120.191406 197.648438 123.46875 201.691406 123.46875 L 399.484375 123.46875 C 403.527344 123.46875 406.804688 120.191406 406.804688 116.148438 L 406.804688 92.695312 C 406.804688 88.648438 403.527344 85.371094 399.484375 85.371094 " fill-opacity="1" fill-rule="nonzero"/><path fill="#000000" d="M 201.691406 86.0625 C 198.039062 86.0625 195.0625 89.039062 195.0625 92.695312 L 195.0625 116.148438 C 195.0625 119.804688 198.039062 122.777344 201.691406 122.777344 L 399.484375 122.777344 C 403.140625 122.777344 406.113281 119.804688 406.113281 116.148438 L 406.113281 92.695312 C 406.113281 89.039062 403.140625 86.0625 399.484375 86.0625 Z M 399.484375 124.164062 L 201.691406 124.164062 C 197.273438 124.164062 193.679688 120.566406 193.679688 116.148438 L 193.679688 92.695312 C 193.679688 88.273438 197.273438 84.679688 201.691406 84.679688 L 399.484375 84.679688 C 403.90625 84.679688 407.5 88.273438 407.5 92.695312 L 407.5 116.148438 C 407.5 120.566406 403.90625 124.164062 399.484375 124.164062 " fill-opacity="1" fill-rule="nonzero"/><path fill="#ffffff" d="M 241.402344 152.59375 C 216.277344 177.71875 175.542969 177.71875 150.417969 152.59375 C 125.296875 127.46875 125.296875 86.738281 150.417969 61.613281 C 175.542969 36.488281 216.277344 36.488281 241.402344 61.613281 C 266.523438 86.738281 266.523438 127.46875 241.402344 152.59375 Z M 245.863281 57.152344 C 218.277344 29.5625 173.542969 29.5625 145.957031 57.152344 C 118.367188 84.738281 118.367188 129.46875 145.957031 157.058594 C 173.542969 184.648438 218.277344 184.648438 245.863281 157.058594 C 273.453125 129.46875 273.453125 84.738281 245.863281 57.152344 " fill-opacity="1" fill-rule="nonzero"/><path fill="#000000" d="M 195.910156 43.464844 C 178.910156 43.464844 162.929688 50.085938 150.910156 62.101562 C 126.097656 86.914062 126.097656 127.289062 150.910156 152.105469 C 175.722656 176.917969 216.097656 176.917969 240.910156 152.105469 C 252.933594 140.085938 259.550781 124.101562 259.550781 107.101562 C 259.550781 90.105469 252.933594 74.125 240.910156 62.101562 C 228.890625 50.085938 212.910156 43.464844 195.910156 43.464844 Z M 195.910156 172.097656 C 179.257812 172.097656 162.605469 165.761719 149.929688 153.082031 C 124.578125 127.730469 124.578125 86.480469 149.929688 61.125 C 162.210938 48.839844 178.539062 42.078125 195.910156 42.078125 C 213.28125 42.078125 229.609375 48.839844 241.890625 61.125 C 254.171875 73.40625 260.9375 89.734375 260.9375 107.101562 C 260.9375 124.472656 254.171875 140.800781 241.890625 153.082031 C 229.214844 165.761719 212.5625 172.097656 195.910156 172.097656 Z M 195.910156 37.183594 C 177.996094 37.183594 160.085938 44.003906 146.445312 57.640625 C 119.171875 84.914062 119.171875 129.292969 146.445312 156.566406 C 173.71875 183.84375 218.101562 183.839844 245.375 156.566406 C 272.648438 129.292969 272.648438 84.914062 245.375 57.640625 C 231.734375 44.003906 213.824219 37.183594 195.910156 37.183594 Z M 195.910156 178.40625 C 177.644531 178.40625 159.375 171.453125 145.46875 157.546875 C 117.652344 129.734375 117.652344 84.476562 145.46875 56.660156 C 173.28125 28.847656 218.539062 28.847656 246.355469 56.660156 C 274.167969 84.476562 274.167969 129.734375 246.355469 157.546875 C 232.445312 171.453125 214.179688 178.40625 195.910156 178.40625 " fill-opacity="1" fill-rule="nonzero"/><path fill="#ffffff" d="M 70.105469 231.707031 L 71.183594 232.789062 C 73.792969 235.394531 78.015625 235.394531 80.621094 232.789062 L 148.503906 164.910156 L 137.984375 154.390625 L 70.105469 222.273438 C 67.5 224.878906 67.5 229.101562 70.105469 231.707031 " fill-opacity="1" fill-rule="nonzero"/><path fill="#000000" d="M 70.59375 231.21875 L 71.675781 232.300781 C 74.007812 234.632812 77.800781 234.632812 80.132812 232.300781 L 147.523438 164.910156 L 137.984375 155.371094 L 70.59375 222.761719 C 68.261719 225.09375 68.261719 228.886719 70.59375 231.21875 Z M 75.902344 235.433594 C 74.015625 235.433594 72.132812 234.714844 70.695312 233.28125 L 69.613281 232.199219 C 66.742188 229.324219 66.742188 224.65625 69.613281 221.78125 L 137.496094 153.902344 C 137.765625 153.632812 138.203125 153.632812 138.476562 153.902344 L 148.992188 164.421875 C 149.261719 164.691406 149.261719 165.128906 148.992188 165.398438 L 81.113281 233.28125 C 79.675781 234.714844 77.789062 235.433594 75.902344 235.433594 " fill-opacity="1" fill-rule="nonzero"/><path fill="#ffffff" d="M 108.523438 199.792969 L 114.203125 194.117188 L 108.523438 199.792969 " fill-opacity="1" fill-rule="nonzero"/><path fill="#000000" d="M 108.523438 200.484375 C 108.347656 200.484375 108.167969 200.417969 108.035156 200.28125 C 107.765625 200.011719 107.765625 199.570312 108.035156 199.300781 L 113.710938 193.625 C 113.984375 193.355469 114.421875 193.355469 114.691406 193.625 C 114.960938 193.894531 114.960938 194.332031 114.691406 194.605469 L 109.015625 200.28125 C 108.878906 200.417969 108.703125 200.484375 108.523438 200.484375 " fill-opacity="1" fill-rule="nonzero"/><path fill="#ffffff" d="M 79.570312 217.898438 L 73.191406 224.28125 C 71.699219 225.773438 71.699219 228.207031 73.191406 229.703125 C 74.6875 231.199219 77.121094 231.199219 78.613281 229.703125 L 101.023438 207.292969 L 79.570312 217.898438 " fill-opacity="1" fill-rule="nonzero"/><path fill="#000000" d="M 75.902344 231.515625 C 74.742188 231.515625 73.585938 231.074219 72.703125 230.191406 C 71.847656 229.339844 71.378906 228.203125 71.378906 226.988281 C 71.378906 225.78125 71.847656 224.644531 72.703125 223.789062 L 79.082031 217.410156 C 79.351562 217.140625 79.789062 217.140625 80.058594 217.410156 C 80.332031 217.679688 80.332031 218.121094 80.058594 218.390625 L 73.683594 224.769531 C 73.089844 225.363281 72.761719 226.152344 72.761719 226.988281 C 72.761719 227.832031 73.089844 228.621094 73.683594 229.214844 C 74.90625 230.433594 76.898438 230.4375 78.125 229.214844 L 100.535156 206.804688 C 100.804688 206.535156 101.242188 206.535156 101.511719 206.804688 C 101.785156 207.074219 101.785156 207.511719 101.511719 207.78125 L 79.105469 230.191406 C 78.222656 231.074219 77.0625 231.515625 75.902344 231.515625 " fill-opacity="1" fill-rule="nonzero"/><path fill="#ffffff" d="M 122.339844 167.023438 L 135.871094 180.554688 C 136.488281 181.171875 137.492188 181.171875 138.109375 180.554688 L 144.835938 173.832031 C 145.453125 173.210938 145.453125 172.207031 144.835938 171.589844 L 131.304688 158.058594 C 130.6875 157.441406 129.683594 157.441406 129.066406 158.058594 L 122.339844 164.785156 C 121.722656 165.402344 121.722656 166.40625 122.339844 167.023438 " fill-opacity="1" fill-rule="nonzero"/><path fill="#000000" d="M 130.183594 159.078125 C 129.4375 159.078125 128.734375 159.371094 128.203125 159.898438 L 124.179688 163.921875 C 123.089844 165.015625 123.089844 166.792969 124.179688 167.882812 L 135.007812 178.714844 C 136.101562 179.804688 137.878906 179.804688 138.972656 178.714844 L 142.996094 174.691406 C 143.523438 174.160156 143.816406 173.457031 143.816406 172.707031 C 143.816406 171.960938 143.523438 171.257812 142.996094 170.726562 L 132.167969 159.898438 C 131.636719 159.371094 130.933594 159.078125 130.183594 159.078125 Z M 136.988281 180.917969 C 135.871094 180.917969 134.820312 180.484375 134.03125 179.691406 L 123.203125 168.863281 C 122.410156 168.074219 121.972656 167.023438 121.972656 165.902344 C 121.972656 164.785156 122.410156 163.734375 123.203125 162.941406 L 127.222656 158.921875 C 128.015625 158.128906 129.066406 157.691406 130.183594 157.691406 C 131.304688 157.691406 132.355469 158.128906 133.144531 158.921875 L 143.972656 169.75 C 144.765625 170.539062 145.199219 171.589844 145.199219 172.707031 C 145.199219 173.828125 144.765625 174.878906 143.972656 175.671875 L 139.953125 179.691406 C 139.160156 180.484375 138.109375 180.917969 136.988281 180.917969 " fill-opacity="1" fill-rule="nonzero"/><path fill="#ffffff" d="M 111.179688 178.183594 L 124.710938 191.714844 C 125.328125 192.332031 126.332031 192.332031 126.949219 191.714844 L 133.675781 184.992188 C 134.292969 184.371094 134.292969 183.367188 133.675781 182.75 L 120.144531 169.21875 C 119.527344 168.601562 118.523438 168.601562 117.90625 169.21875 L 111.179688 175.945312 C 110.5625 176.5625 110.5625 177.566406 111.179688 178.183594 " fill-opacity="1" fill-rule="nonzero"/><path fill="#000000" d="M 119.023438 170.242188 C 118.308594 170.242188 117.589844 170.515625 117.042969 171.0625 L 113.019531 175.082031 C 111.929688 176.175781 111.929688 177.953125 113.019531 179.046875 L 123.847656 189.871094 C 124.941406 190.964844 126.71875 190.964844 127.8125 189.871094 L 131.835938 185.851562 C 132.925781 184.757812 132.925781 182.980469 131.835938 181.886719 L 121.003906 171.0625 C 120.460938 170.515625 119.742188 170.242188 119.023438 170.242188 Z M 125.832031 192.078125 C 124.757812 192.078125 123.6875 191.667969 122.871094 190.851562 L 112.039062 180.027344 C 110.410156 178.394531 110.410156 175.738281 112.039062 174.101562 L 116.0625 170.082031 C 117.695312 168.449219 120.351562 168.449219 121.984375 170.082031 L 132.8125 180.910156 C 134.445312 182.542969 134.445312 185.195312 132.8125 186.828125 L 128.792969 190.851562 C 127.976562 191.667969 126.902344 192.078125 125.832031 192.078125 " fill-opacity="1" fill-rule="nonzero"/><path fill="#000000" d="M 220.714844 56.53125 C 220.613281 56.53125 220.511719 56.507812 220.410156 56.464844 C 215.410156 54.050781 210.082031 52.398438 204.570312 51.554688 C 204.191406 51.492188 203.933594 51.140625 203.992188 50.761719 C 204.046875 50.382812 204.40625 50.125 204.78125 50.183594 C 210.425781 51.050781 215.890625 52.746094 221.015625 55.214844 C 221.359375 55.378906 221.503906 55.792969 221.335938 56.140625 C 221.21875 56.386719 220.972656 56.53125 220.714844 56.53125 " fill-opacity="1" fill-rule="nonzero"/><path fill="#000000" d="M 195.976562 164.757812 C 181.21875 164.757812 166.457031 159.140625 155.222656 147.902344 C 147.054688 139.738281 141.582031 129.449219 139.394531 118.15625 C 139.320312 117.78125 139.566406 117.414062 139.941406 117.34375 C 140.316406 117.273438 140.679688 117.515625 140.753906 117.890625 C 142.890625 128.914062 148.230469 138.953125 156.199219 146.925781 C 178.132812 168.859375 213.820312 168.859375 235.753906 146.925781 C 257.6875 124.992188 257.6875 89.304688 235.753906 67.371094 C 235.484375 67.097656 235.484375 66.664062 235.753906 66.390625 C 236.023438 66.121094 236.464844 66.121094 236.734375 66.390625 C 259.207031 88.863281 259.207031 125.429688 236.734375 147.902344 C 225.5 159.140625 210.738281 164.757812 195.976562 164.757812 " fill-opacity="1" fill-rule="nonzero"/><path fill="#000000" d="M 201.695312 86.0625 C 198.039062 86.0625 195.066406 89.035156 195.066406 92.691406 L 195.066406 116.144531 C 195.066406 119.804688 198.039062 122.773438 201.695312 122.773438 L 257.597656 122.773438 C 260.683594 110.585938 260.128906 97.914062 255.984375 86.0625 Z M 258.132812 124.160156 L 201.695312 124.160156 C 197.277344 124.160156 193.679688 120.566406 193.679688 116.144531 L 193.679688 92.691406 C 193.679688 88.273438 197.277344 84.675781 201.695312 84.675781 L 256.472656 84.675781 C 256.769531 84.675781 257.027344 84.859375 257.125 85.136719 C 261.574219 97.550781 262.152344 110.867188 258.808594 123.640625 C 258.726562 123.949219 258.449219 124.160156 258.132812 124.160156 " fill-opacity="1" fill-rule="nonzero"/><path fill="#000000" d="M 340.9375 391.765625 C 340.703125 391.765625 340.472656 391.644531 340.34375 391.429688 C 340.148438 391.105469 340.25 390.675781 340.582031 390.480469 C 369.308594 373.0625 386.039062 352.023438 395.011719 337.441406 C 404.726562 321.660156 407.683594 309.878906 407.710938 309.761719 C 407.804688 309.390625 408.179688 309.164062 408.550781 309.253906 C 408.921875 309.34375 409.148438 309.71875 409.058594 310.089844 C 409.03125 310.210938 406.019531 322.203125 396.195312 338.167969 C 387.136719 352.878906 370.261719 374.105469 341.296875 391.664062 C 341.183594 391.730469 341.0625 391.765625 340.9375 391.765625 " fill-opacity="1" fill-rule="nonzero"/><path fill="#000000" d="M 349.304688 394.503906 C 349.054688 394.503906 348.8125 394.371094 348.691406 394.132812 C 348.511719 393.792969 348.644531 393.375 348.984375 393.199219 C 378.292969 377.898438 398.824219 345.78125 399.027344 345.460938 C 399.234375 345.136719 399.660156 345.039062 399.984375 345.242188 C 400.304688 345.449219 400.402344 345.875 400.199219 346.199219 C 399.992188 346.527344 379.257812 378.957031 349.625 394.425781 C 349.519531 394.480469 349.414062 394.503906 349.304688 394.503906 " fill-opacity="1" fill-rule="nonzero"/><path fill="#ffffff" d="M 324.601562 61.480469 L 359.195312 71.542969 L 383.746094 44.234375 L 324.601562 61.480469 " fill-opacity="1" fill-rule="nonzero"/><path fill="#000000" d="M 327.078125 61.480469 L 358.96875 70.753906 L 381.601562 45.582031 Z M 359.195312 72.234375 C 359.132812 72.234375 359.066406 72.226562 359 72.207031 L 324.40625 62.144531 C 324.109375 62.0625 323.90625 61.789062 323.90625 61.484375 C 323.90625 61.175781 324.109375 60.902344 324.402344 60.816406 L 383.554688 43.570312 C 383.847656 43.484375 384.167969 43.605469 384.332031 43.867188 C 384.5 44.128906 384.46875 44.46875 384.261719 44.699219 L 359.710938 72.003906 C 359.574219 72.152344 359.386719 72.234375 359.195312 72.234375 " fill-opacity="1" fill-rule="nonzero"/><path fill="#791acc" d="M 341.835938 77.714844 L 337.011719 65.085938 L 375.238281 48.96875 L 343.089844 66.855469 L 350.320312 68.960938 L 341.835938 77.714844 " fill-opacity="1" fill-rule="nonzero"/><path fill="#000000" d="M 337.894531 65.46875 L 342.09375 76.453125 L 349.023438 69.304688 L 342.894531 67.523438 C 342.625 67.445312 342.433594 67.214844 342.398438 66.933594 C 342.371094 66.65625 342.507812 66.386719 342.753906 66.253906 L 363.777344 54.558594 Z M 341.835938 78.40625 C 341.789062 78.40625 341.742188 78.402344 341.699219 78.394531 C 341.464844 78.34375 341.273438 78.183594 341.1875 77.960938 L 336.363281 65.335938 C 336.230469 64.988281 336.398438 64.597656 336.738281 64.449219 L 374.96875 48.332031 C 375.308594 48.191406 375.703125 48.335938 375.859375 48.667969 C 376.023438 49 375.894531 49.398438 375.574219 49.578125 L 344.875 66.65625 L 350.511719 68.296875 C 350.746094 68.363281 350.929688 68.550781 350.992188 68.785156 C 351.054688 69.019531 350.988281 69.269531 350.816406 69.441406 L 342.335938 78.199219 C 342.203125 78.332031 342.023438 78.40625 341.835938 78.40625 " fill-opacity="1" fill-rule="nonzero"/><path fill="#000000" d="M 342.277344 74.546875 C 342.25 74.546875 342.226562 74.542969 342.203125 74.542969 C 341.851562 74.5 341.597656 74.179688 341.636719 73.828125 L 342.449219 66.78125 C 342.488281 66.429688 342.808594 66.175781 343.164062 66.21875 C 343.515625 66.261719 343.769531 66.578125 343.726562 66.929688 L 342.917969 73.976562 C 342.878906 74.304688 342.597656 74.546875 342.277344 74.546875 " fill-opacity="1" fill-rule="nonzero"/><path fill="#caddff" d="M 213.21875 111.207031 C 213.109375 111.207031 213 111.179688 212.894531 111.121094 C 212.558594 110.941406 212.429688 110.523438 212.613281 110.1875 C 213.058594 109.351562 213.570312 108.535156 214.125 107.761719 C 214.347656 107.445312 214.777344 107.378906 215.089844 107.597656 C 215.402344 107.820312 215.472656 108.253906 215.25 108.566406 C 214.730469 109.292969 214.253906 110.058594 213.832031 110.839844 C 213.707031 111.074219 213.46875 111.207031 213.21875 111.207031 " fill-opacity="1" fill-rule="nonzero"/><path fill="#caddff" d="M 333.347656 96.648438 C 333.210938 96.648438 333.070312 96.605469 332.945312 96.519531 C 332.632812 96.300781 332.5625 95.867188 332.785156 95.554688 C 333.859375 94.039062 334.828125 92.445312 335.660156 90.816406 C 335.835938 90.472656 336.253906 90.339844 336.589844 90.511719 C 336.933594 90.6875 337.070312 91.105469 336.894531 91.445312 C 336.03125 93.136719 335.027344 94.789062 333.914062 96.359375 C 333.777344 96.546875 333.5625 96.648438 333.347656 96.648438 Z M 245.097656 97.765625 C 245.074219 97.765625 245.046875 97.761719 245.019531 97.761719 C 243.902344 97.632812 242.785156 97.542969 241.695312 97.492188 C 240.960938 97.460938 240.21875 97.449219 239.46875 97.460938 C 239.464844 97.460938 239.464844 97.460938 239.457031 97.460938 C 239.082031 97.460938 238.773438 97.15625 238.765625 96.777344 C 238.761719 96.394531 239.070312 96.078125 239.449219 96.074219 C 240.21875 96.066406 241 96.074219 241.757812 96.109375 C 242.878906 96.160156 244.03125 96.25 245.175781 96.382812 C 245.558594 96.429688 245.832031 96.769531 245.785156 97.152344 C 245.746094 97.503906 245.449219 97.765625 245.097656 97.765625 Z M 228.351562 99.300781 C 228.0625 99.300781 227.792969 99.121094 227.691406 98.828125 C 227.574219 98.464844 227.769531 98.074219 228.132812 97.953125 C 229.921875 97.359375 231.804688 96.902344 233.722656 96.585938 C 234.101562 96.527344 234.457031 96.777344 234.519531 97.15625 C 234.582031 97.535156 234.324219 97.890625 233.949219 97.953125 C 232.097656 98.253906 230.289062 98.699219 228.570312 99.269531 C 228.496094 99.292969 228.421875 99.300781 228.351562 99.300781 Z M 256.140625 100.097656 C 256.078125 100.097656 256.011719 100.089844 255.945312 100.070312 C 254.042969 99.507812 252.269531 99.054688 250.523438 98.675781 C 250.152344 98.597656 249.910156 98.230469 249.992188 97.855469 C 250.074219 97.480469 250.445312 97.242188 250.8125 97.320312 C 252.597656 97.707031 254.402344 98.171875 256.335938 98.742188 C 256.707031 98.847656 256.914062 99.234375 256.804688 99.601562 C 256.71875 99.902344 256.441406 100.097656 256.140625 100.097656 Z M 266.820312 103.792969 C 266.738281 103.792969 266.652344 103.777344 266.570312 103.75 C 264.535156 102.96875 262.855469 102.351562 261.289062 101.800781 C 260.925781 101.675781 260.734375 101.28125 260.863281 100.917969 C 260.988281 100.558594 261.386719 100.371094 261.746094 100.492188 C 263.328125 101.046875 265.019531 101.671875 267.066406 102.453125 C 267.425781 102.589844 267.601562 102.992188 267.464844 103.347656 C 267.359375 103.625 267.097656 103.792969 266.820312 103.792969 Z M 218.507812 104.710938 C 218.3125 104.710938 218.117188 104.628906 217.980469 104.46875 C 217.730469 104.179688 217.769531 103.738281 218.058594 103.492188 C 219.484375 102.273438 221.09375 101.175781 222.835938 100.230469 C 223.171875 100.046875 223.59375 100.171875 223.773438 100.511719 C 223.957031 100.847656 223.832031 101.265625 223.496094 101.449219 C 221.839844 102.347656 220.3125 103.390625 218.957031 104.542969 C 218.824219 104.65625 218.667969 104.710938 218.507812 104.710938 Z M 325.589844 104.816406 C 325.382812 104.816406 325.179688 104.726562 325.042969 104.554688 C 324.808594 104.253906 324.855469 103.820312 325.15625 103.582031 C 326.601562 102.433594 327.980469 101.171875 329.253906 99.832031 C 329.515625 99.558594 329.957031 99.546875 330.234375 99.808594 C 330.507812 100.074219 330.519531 100.511719 330.253906 100.789062 C 328.9375 102.171875 327.515625 103.480469 326.019531 104.667969 C 325.890625 104.765625 325.742188 104.816406 325.589844 104.816406 Z M 277.367188 107.851562 C 277.289062 107.851562 277.210938 107.835938 277.128906 107.808594 C 275.898438 107.355469 274.671875 106.886719 273.453125 106.417969 L 271.835938 105.792969 C 271.480469 105.652344 271.304688 105.25 271.445312 104.894531 C 271.582031 104.539062 271.988281 104.359375 272.339844 104.5 L 273.953125 105.128906 C 275.164062 105.59375 276.382812 106.058594 277.605469 106.507812 C 277.964844 106.640625 278.152344 107.039062 278.019531 107.398438 C 277.917969 107.679688 277.652344 107.851562 277.367188 107.851562 Z M 315.867188 110.507812 C 315.59375 110.507812 315.335938 110.34375 315.226562 110.074219 C 315.082031 109.722656 315.253906 109.316406 315.605469 109.175781 C 317.308594 108.484375 318.976562 107.660156 320.582031 106.722656 C 320.910156 106.527344 321.335938 106.636719 321.527344 106.96875 C 321.722656 107.296875 321.613281 107.722656 321.28125 107.914062 C 319.625 108.886719 317.886719 109.742188 316.128906 110.457031 C 316.042969 110.492188 315.957031 110.507812 315.867188 110.507812 Z M 288.132812 111.292969 C 288.070312 111.292969 288.015625 111.285156 287.957031 111.269531 C 286.214844 110.820312 284.425781 110.300781 282.492188 109.675781 C 282.128906 109.554688 281.925781 109.164062 282.046875 108.800781 C 282.164062 108.4375 282.554688 108.238281 282.921875 108.355469 C 284.824219 108.972656 286.585938 109.488281 288.300781 109.929688 C 288.675781 110.023438 288.898438 110.402344 288.800781 110.773438 C 288.71875 111.085938 288.441406 111.292969 288.132812 111.292969 Z M 304.910156 113.085938 C 304.550781 113.085938 304.25 112.808594 304.222656 112.441406 C 304.191406 112.0625 304.476562 111.730469 304.859375 111.703125 C 305.25 111.671875 305.640625 111.640625 306.027344 111.597656 C 307.460938 111.445312 308.910156 111.199219 310.328125 110.859375 C 310.707031 110.773438 311.078125 111 311.164062 111.375 C 311.253906 111.746094 311.023438 112.121094 310.648438 112.207031 C 309.171875 112.558594 307.664062 112.816406 306.171875 112.972656 C 305.769531 113.015625 305.367188 113.054688 304.964844 113.082031 C 304.945312 113.085938 304.929688 113.085938 304.910156 113.085938 Z M 299.265625 113.125 C 299.253906 113.125 299.242188 113.125 299.226562 113.121094 C 297.402344 113.015625 295.484375 112.796875 293.539062 112.46875 C 293.160156 112.40625 292.90625 112.046875 292.972656 111.671875 C 293.035156 111.292969 293.390625 111.042969 293.769531 111.101562 C 295.667969 111.421875 297.53125 111.636719 299.304688 111.738281 C 299.6875 111.761719 299.980469 112.089844 299.957031 112.46875 C 299.933594 112.839844 299.628906 113.125 299.265625 113.125 " fill-opacity="1" fill-rule="nonzero"/><path fill="#caddff" d="M 338.453125 86.589844 C 338.378906 86.589844 338.3125 86.578125 338.238281 86.554688 C 337.875 86.4375 337.675781 86.046875 337.796875 85.679688 C 338.074219 84.816406 338.324219 83.9375 338.535156 83.066406 C 338.621094 82.699219 338.996094 82.464844 339.367188 82.554688 C 339.742188 82.644531 339.96875 83.019531 339.878906 83.390625 C 339.664062 84.296875 339.40625 85.210938 339.113281 86.109375 C 339.015625 86.402344 338.746094 86.589844 338.453125 86.589844 " fill-opacity="1" fill-rule="nonzero"/><path fill="#000000" d="M 45.164062 364.59375 C 44.875 365.484375 44.949219 366.433594 45.378906 367.269531 C 45.804688 368.101562 46.527344 368.722656 47.421875 369.011719 C 48.3125 369.300781 49.261719 369.222656 50.097656 368.800781 C 50.933594 368.371094 51.550781 367.648438 51.839844 366.757812 C 52.433594 364.917969 51.425781 362.9375 49.585938 362.339844 C 47.746094 361.746094 45.761719 362.753906 45.164062 364.59375 Z M 48.507812 370.570312 C 48 370.570312 47.488281 370.492188 46.992188 370.328125 C 45.75 369.925781 44.738281 369.0625 44.144531 367.898438 C 43.550781 366.734375 43.445312 365.410156 43.847656 364.167969 C 44.679688 361.597656 47.445312 360.1875 50.011719 361.019531 C 51.253906 361.421875 52.265625 362.285156 52.859375 363.449219 C 53.453125 364.613281 53.558594 365.941406 53.15625 367.183594 C 52.753906 368.425781 51.890625 369.4375 50.726562 370.03125 C 50.027344 370.390625 49.269531 370.570312 48.507812 370.570312 " fill-opacity="1" fill-rule="nonzero"/><path fill="#000000" d="M 56.515625 376.390625 L 56.519531 376.390625 Z M 58.914062 375.335938 C 58.628906 375.335938 58.34375 375.40625 58.082031 375.535156 C 57.648438 375.761719 57.324219 376.136719 57.175781 376.605469 C 57.023438 377.070312 57.0625 377.566406 57.285156 378 C 57.507812 378.4375 57.886719 378.761719 58.351562 378.910156 C 58.816406 379.0625 59.3125 379.023438 59.75 378.800781 C 60.183594 378.578125 60.507812 378.199219 60.65625 377.734375 C 60.808594 377.269531 60.769531 376.773438 60.546875 376.335938 C 60.324219 375.902344 59.945312 375.578125 59.480469 375.425781 C 59.292969 375.367188 59.101562 375.335938 58.914062 375.335938 Z M 58.917969 380.386719 C 58.585938 380.386719 58.25 380.335938 57.921875 380.230469 C 57.105469 379.964844 56.441406 379.398438 56.050781 378.628906 C 55.660156 377.867188 55.589844 376.992188 55.855469 376.179688 C 56.121094 375.359375 56.6875 374.695312 57.453125 374.304688 C 58.21875 373.914062 59.089844 373.84375 59.90625 374.109375 C 60.726562 374.375 61.390625 374.941406 61.78125 375.707031 C 62.171875 376.472656 62.242188 377.34375 61.976562 378.164062 C 61.710938 378.976562 61.144531 379.644531 60.378906 380.035156 C 59.917969 380.269531 59.421875 380.386719 58.917969 380.386719 " fill-opacity="1" fill-rule="nonzero"/><path fill="#caddff" d="M 103.820312 384.753906 C 103.820312 384.753906 86.3125 346.375 96.355469 296.617188 C 96.355469 296.617188 123.492188 319.359375 113.707031 384.753906 L 103.820312 384.753906 " fill-opacity="1" fill-rule="nonzero"/><path fill="#000000" d="M 104.273438 384.058594 L 113.109375 384.058594 C 117.996094 350.765625 113.070312 328.914062 108.058594 316.421875 C 103.792969 305.792969 98.78125 300.011719 96.789062 297.988281 C 87.957031 343.671875 102.484375 379.855469 104.273438 384.058594 Z M 113.707031 385.445312 L 103.820312 385.445312 C 103.546875 385.445312 103.300781 385.285156 103.191406 385.039062 C 103.144531 384.941406 98.742188 375.191406 95.640625 359.476562 C 92.78125 344.988281 90.464844 322.296875 95.675781 296.484375 C 95.722656 296.242188 95.894531 296.046875 96.125 295.964844 C 96.355469 295.882812 96.613281 295.929688 96.800781 296.089844 C 97.082031 296.324219 103.78125 302.042969 109.34375 315.90625 C 114.449219 328.628906 119.472656 350.921875 114.394531 384.855469 C 114.34375 385.195312 114.050781 385.445312 113.707031 385.445312 " fill-opacity="1" fill-rule="nonzero"/><path fill="#ffffff" d="M 108.101562 381.445312 C 108.089844 381.445312 108.078125 381.445312 108.066406 381.441406 C 107.683594 381.421875 107.390625 381.09375 107.410156 380.714844 C 108.75 356.199219 97.691406 303.847656 97.578125 303.324219 C 97.5 302.949219 97.738281 302.578125 98.113281 302.5 C 98.488281 302.421875 98.855469 302.660156 98.933594 303.035156 C 99.046875 303.5625 110.144531 356.089844 108.792969 380.789062 C 108.773438 381.15625 108.46875 381.445312 108.101562 381.445312 " fill-opacity="1" fill-rule="nonzero"/><path fill="#ffffff" d="M 121.4375 322.355469 C 121.4375 322.355469 98.875 363.113281 112.445312 380.75 L 119.707031 380.75 C 119.707031 380.75 134.210938 348.890625 121.4375 322.355469 " fill-opacity="1" fill-rule="nonzero"/><path fill="#000000" d="M 112.792969 380.058594 L 119.25 380.058594 C 120.824219 376.34375 132.128906 347.984375 121.394531 323.910156 C 117.84375 330.761719 101.347656 364.542969 112.792969 380.058594 Z M 119.703125 381.445312 L 112.445312 381.445312 C 112.230469 381.445312 112.027344 381.34375 111.898438 381.171875 C 106.125 373.667969 105.886719 361.40625 111.191406 344.726562 C 115.113281 332.410156 120.773438 322.121094 120.828125 322.019531 C 120.953125 321.792969 121.179688 321.644531 121.457031 321.660156 C 121.714844 321.671875 121.949219 321.820312 122.058594 322.054688 C 128.742188 335.929688 127.914062 351.230469 126.042969 361.625 C 124.023438 372.863281 120.371094 380.957031 120.335938 381.039062 C 120.222656 381.285156 119.976562 381.445312 119.703125 381.445312 " fill-opacity="1" fill-rule="nonzero"/><path fill="#000000" d="M 115.835938 382.523438 C 115.464844 382.523438 115.160156 382.230469 115.144531 381.859375 C 114.492188 365.015625 120.6875 322.679688 120.75 322.253906 C 120.804688 321.875 121.160156 321.613281 121.535156 321.671875 C 121.914062 321.722656 122.175781 322.078125 122.121094 322.453125 C 122.058594 322.878906 115.878906 365.089844 116.527344 381.804688 C 116.542969 382.1875 116.246094 382.507812 115.863281 382.523438 C 115.851562 382.523438 115.84375 382.523438 115.835938 382.523438 " fill-opacity="1" fill-rule="nonzero"/><path fill="#ffffff" d="M 78.363281 337.550781 C 78.363281 337.550781 97.582031 344.105469 104.542969 382.925781 L 96.984375 382.925781 C 96.984375 382.925781 81.207031 361.605469 78.363281 337.550781 " fill-opacity="1" fill-rule="nonzero"/><path fill="#000000" d="M 97.335938 382.230469 L 103.710938 382.230469 C 97.75 350.179688 83.261719 340.738281 79.207031 338.683594 C 82.171875 360.316406 95.527344 379.6875 97.335938 382.230469 Z M 104.542969 383.617188 L 96.980469 383.617188 C 96.761719 383.617188 96.554688 383.515625 96.425781 383.335938 C 96.265625 383.121094 80.507812 361.589844 77.675781 337.628906 C 77.648438 337.394531 77.746094 337.160156 77.929688 337.007812 C 78.117188 336.859375 78.363281 336.816406 78.589844 336.894531 C 78.792969 336.964844 83.636719 338.667969 89.367188 345.222656 C 94.597656 351.210938 101.601562 362.59375 105.222656 382.800781 C 105.257812 383.003906 105.203125 383.210938 105.074219 383.371094 C 104.941406 383.527344 104.746094 383.617188 104.542969 383.617188 " fill-opacity="1" fill-rule="nonzero"/><path fill="#000000" d="M 100.410156 382.523438 C 100.078125 382.523438 99.78125 382.28125 99.726562 381.945312 C 96.871094 364.699219 84.519531 347.324219 84.394531 347.148438 C 84.171875 346.839844 84.242188 346.40625 84.554688 346.183594 C 84.867188 345.960938 85.296875 346.03125 85.519531 346.34375 C 85.648438 346.519531 98.1875 364.15625 101.09375 381.71875 C 101.15625 382.09375 100.902344 382.453125 100.523438 382.511719 C 100.484375 382.519531 100.445312 382.523438 100.410156 382.523438 " fill-opacity="1" fill-rule="nonzero"/><path fill="#2e98ff" d="M 85.78125 379.84375 L 133.191406 379.84375 L 134.253906 402.269531 C 134.515625 407.769531 130.128906 412.367188 124.625 412.367188 L 97.546875 412.367188 C 91.03125 412.367188 85.753906 407.085938 85.761719 400.570312 L 85.78125 379.84375 " fill-opacity="1" fill-rule="nonzero"/></svg>